<?xml version="1.0" encoding="iso-8859-1"?>
<!-- Generator: Adobe Illustrator 19.0.0, SVG Export Plug-In . SVG Version: 6.00 Build 0)  -->
<svg version="1.1" id="Capa_1" xmlns="http://www.w3.org/2000/svg" xmlns:xlink="http://www.w3.org/1999/xlink" x="0px" y="0px"
	 viewBox="0 0 480 480" style="enable-background:new 0 0 480 480;" xml:space="preserve">
<path style="fill:#F40E34;" d="M264,296H104c-8.837,0-16-7.163-16-16v-96c0-8.837,7.163-16,16-16h160c8.837,0,16,7.163,16,16v96
	C280,288.837,272.837,296,264,296z"/>
<path style="fill:#FFB398;" d="M368,232v232H248V360h-8c-16.4,0-32.32-3.12-47.2-9.04c-9.2-3.6-13.12-14.4-8.16-22.96
	c2.88-5.04,8.16-8.08,13.68-8.08c1.84,0,3.76,0.4,5.6,1.12c36.24,14.64,80.08,6.4,108.48-26c29.44-33.52,31.36-84.48,4.72-120.16
	c-27.04-36.32-73.6-47.6-112.48-32.16c-7.44,2.96-15.92,0.48-19.92-6.48l-0.32-0.48c-4.88-8.4-0.96-18.96,8-22.64
	c15.04-6,31.2-9.12,47.6-9.12c23.2,0,45.76,6.32,65.36,18c11.2,6.56,21.44,14.96,30.32,24.96c0.08,0.16,0.24,0.24,0.32,0.4
	c5.84,6.56,10.8,13.52,14.96,20.88c0.16,0.4,0.4,0.8,0.64,1.2c2.72,4.8,5.12,9.68,7.12,14.72c6.16,15.28,9.2,31.44,9.2,47.52V232
	H368z"/>
<g>
	<path style="fill:#FE946F;" d="M368,16v216h-0.08v-0.08c0-16.16-3.04-32.4-9.2-47.76c-2-5.04-4.4-9.92-7.12-14.72
		c-0.24-0.4-0.48-0.8-0.64-1.2L336,112.48V16c0-8.8,7.2-16,16-16S368,7.2,368,16z"/>
	<path style="fill:#FE946F;" d="M350.96,168.24c-4.16-7.36-9.12-14.32-14.96-20.88c-0.08-0.16-0.24-0.24-0.32-0.4
		c-8.88-10-19.12-18.4-30.32-24.96L281.2,31.68c-2.32-8.56,2.8-17.36,11.28-19.6c8.48-2.32,17.36,2.8,19.6,11.28L336,112.48
		L350.96,168.24z"/>
	<path style="fill:#FE946F;" d="M423.92,47.36L400,136.64L368,256V132.32l24.96-93.28c2.32-8.48,11.12-13.6,19.6-11.28
		C421.12,30.08,426.16,38.8,423.92,47.36z"/>
</g>
<g>
	<polygon style="fill:#FFD422;" points="48,232 32,232 32,216 16,216 16,232 0,232 0,248 16,248 16,264 32,264 32,248 48,248 	"/>
	<polygon style="fill:#FFD422;" points="464,232 464,216 448,216 448,232 432,232 432,248 448,248 448,264 464,264 464,248 480,248 
		480,232 	"/>
	<polygon style="fill:#FFD422;" points="80,80 64,80 64,96 48,96 48,112 64,112 64,128 80,128 80,112 96,112 96,96 80,96 	"/>
	<polygon style="fill:#FFD422;" points="80,352 64,352 64,368 48,368 48,384 64,384 64,400 80,400 80,384 96,384 96,368 80,368 	"/>
	<polygon style="fill:#FFD422;" points="432,352 416,352 416,368 400,368 400,384 416,384 416,400 432,400 432,384 448,384 448,368 
		432,368 	"/>
	<polygon style="fill:#FFD422;" points="224,0 208,0 208,16 192,16 192,32 208,32 208,48 224,48 224,32 240,32 240,16 224,16 	"/>
	<polygon style="fill:#FFD422;" points="208,432 192,432 192,448 176,448 176,464 192,464 192,480 208,480 208,464 224,464 224,448 
		208,448 	"/>
	<rect x="88" y="208" style="fill:#FFD422;" width="192" height="16"/>
</g>
<g>
	<rect x="112" y="192" style="fill:#FFFFFF;" width="16" height="16"/>
	<polygon style="fill:#FFFFFF;" points="128,248 128,224 112,224 112,264 128,264 144,264 144,248 	"/>
</g>
<g>
</g>
<g>
</g>
<g>
</g>
<g>
</g>
<g>
</g>
<g>
</g>
<g>
</g>
<g>
</g>
<g>
</g>
<g>
</g>
<g>
</g>
<g>
</g>
<g>
</g>
<g>
</g>
<g>
</g>
</svg>
