<svg id="Glyph" height="512" viewBox="0 0 128 128" width="512" xmlns="http://www.w3.org/2000/svg"><path d="m77.79 123.41a4.6 4.6 0 0 0 4.59 4.59h9.2a4.6 4.6 0 0 0 4.6-4.59v-36.55h-18.39z"/><path d="m27.47 123.41a4.6 4.6 0 0 0 4.6 4.59h9.2a4.6 4.6 0 0 0 4.59-4.59v-36.55h-18.39z"/><path d="m91.46 51.46c2.22-3.83 4.22-7 6.33-10.4 1.19-1.91 2.41-3.86 3.72-6a28.74 28.74 0 0 0 4.49-16.75 20.47 20.47 0 0 0 -8.19-15.24 16.07 16.07 0 0 0 -17.11-1.07 17.69 17.69 0 0 0 -7.7 10.48 34.75 34.75 0 0 0 -.89 12.87c0 .5.09 1 .14 1.52.32 3.33.64 6.78-.5 9.79a7.85 7.85 0 0 1 -4.3 4.34 4.49 4.49 0 0 1 -3.68 0c-2.41-1.21-3.15-4.49-2.81-7.2a29.44 29.44 0 0 1 1.13-4.68 34 34 0 0 0 1.12-4.47 17.79 17.79 0 0 0 -26.79-18c-6.08 3.65-9.98 11.35-10.17 20.01-.17 7.74 2.32 15.43 4.52 22.21 2.28 7 4.5 17.86 4.43 25.18h-8.38a2.85 2.85 0 0 0 -2.82 2.85v5.1a2.85 2.85 0 0 0 2.84 2.85h19.67a2.86 2.86 0 0 0 2.85-2.85v-5.1a2.86 2.86 0 0 0 -2.85-2.85h-9.31c.07-7.54-2.2-18.61-4.53-25.79-2.25-7-4.58-14.16-4.42-21.56.14-6.27 2.63-14.38 9.2-18.38a16.28 16.28 0 0 1 17 .39 16.27 16.27 0 0 1 6.79 15.59 32.37 32.37 0 0 1 -1.07 4.2 30.36 30.36 0 0 0 -1.19 5c-.43 3.4.61 7.58 3.89 9.23a6.41 6.41 0 0 0 5.31.14 9.83 9.83 0 0 0 5.42-5.52c1.31-3.45 1-7.13.62-10.69 0-.5-.09-1-.13-1.5a32.81 32.81 0 0 1 .81-12.16 15.9 15.9 0 0 1 6.81-9.35c4.35-2.55 10.5-2.13 14.94 1a18.43 18.43 0 0 1 7.35 13.81 26.77 26.77 0 0 1 -4.19 15.54c-1.31 2.14-2.53 4.09-3.72 6-2.09 3.39-4.09 6.6-6.36 10.45-3.26 5.62-5.22 15.38-4.8 23.6h-7.79a2.86 2.86 0 0 0 -2.85 2.85v5.1a2.86 2.86 0 0 0 2.81 2.85h19.77a2.85 2.85 0 0 0 2.8-2.85v-5.1a2.86 2.86 0 0 0 -2.85-2.85h-9.89c-.42-7.89 1.43-17.25 4.53-22.59z"/></svg>